<svg viewBox="0 0 1024 1024" version="1.1" xmlns="http://www.w3.org/2000/svg" xmlns:xlink="http://www.w3.org/1999/xlink">
  <path d="M227.328 0h566.784c27.648 0 54.272 4.608 80.384 13.824 37.376 13.824 71.68 37.376 97.28 68.608 26.112 31.232 43.008 69.632 49.152 109.568 2.56 14.848 2.56 29.696 2.56 44.544v552.96c0 17.408-1.024 35.84-4.608 52.736-8.192 39.424-26.624 76.8-53.76 107.008-26.624 30.208-61.952 52.224-99.84 64.512-23.04 7.168-47.104 10.24-71.68 10.24-10.752 0-568.32 0-576.512-0.512-40.96-2.048-81.408-15.36-115.2-37.888C69.12 963.072 41.984 931.84 24.576 896c-15.36-30.72-23.04-65.024-23.04-99.328V227.84c-1.024-33.792 6.144-67.584 20.992-97.792 17.408-35.84 44.032-67.584 77.312-90.112C134.144 16.384 174.08 3.072 214.528 1.024c4.096-1.024 8.704-1.024 12.8-1.024z" fill="#F95E21"></path>
  <path d="M863.744 837.632c-3.584-5.632-7.68-11.264-11.776-16.384-10.24-11.776-21.504-22.528-34.304-31.232-15.872-10.752-34.816-17.408-53.76-18.432-13.824-1.024-27.136 1.536-39.936 6.144s-25.088 10.752-37.376 17.408c-13.824 7.168-28.16 14.336-43.008 20.48-17.408 7.168-35.84 12.8-54.784 16.896-23.552 4.608-47.616 6.144-71.168 5.632-43.008-1.024-85.504-7.168-126.464-18.944-35.84-10.752-70.144-25.6-102.912-44.544-28.16-16.384-54.784-35.328-79.36-56.32-20.48-17.408-39.424-36.352-56.832-56.32-11.776-13.824-23.552-28.672-34.304-44.032-4.608-6.144-8.192-12.288-11.776-18.944L0 484.864V226.816C0 101.888 101.376 0 226.304 0h201.728l149.504 152.064c337.408 229.376 228.352 482.816 228.352 482.816s96.256 108.032 57.856 202.752z" fill="#D8491D"></path>
  <path d="M578.56 152.064c337.408 229.376 228.352 482.816 228.352 482.816s95.744 108.544 57.344 203.264c0 0-39.424-66.56-105.984-66.56-64 0-101.376 66.56-230.4 66.56-286.72 0-422.4-239.616-422.4-239.616 258.048 169.984 434.688 49.664 434.688 49.664-116.224-67.584-364.032-390.656-364.032-390.656 215.552 183.296 308.736 231.936 308.736 231.936-55.808-46.08-211.456-270.848-211.456-270.848 124.928 126.464 372.736 302.592 372.736 302.592C716.288 326.144 578.56 152.064 578.56 152.064z" fill="#FFFFFF"></path>
</svg>